<?xml version="1.0" encoding="UTF-8" standalone="no"?>
<!-- Created with Inkscape (http://www.inkscape.org/) -->

<svg
   xmlns:dc="http://purl.org/dc/elements/1.1/"
   xmlns:cc="http://creativecommons.org/ns#"
   xmlns:rdf="http://www.w3.org/1999/02/22-rdf-syntax-ns#"
   xmlns:svg="http://www.w3.org/2000/svg"
   xmlns="http://www.w3.org/2000/svg"
   xmlns:sodipodi="http://sodipodi.sourceforge.net/DTD/sodipodi-0.dtd"
   xmlns:inkscape="http://www.inkscape.org/namespaces/inkscape"
   width="744.09448819"
   height="1052.3622047"
   id="svg2"
   version="1.1"
   inkscape:version="0.48.4 r9939"
   sodipodi:docname="vectors.svg">
  <defs
     id="defs4" />
  <sodipodi:namedview
     id="base"
     pagecolor="#ffffff"
     bordercolor="#666666"
     borderopacity="1.0"
     inkscape:pageopacity="0.0"
     inkscape:pageshadow="2"
     inkscape:zoom="2.8"
     inkscape:cx="-876.61926"
     inkscape:cy="487.12984"
     inkscape:document-units="px"
     inkscape:current-layer="layer1"
     showgrid="false"
     inkscape:window-width="1366"
     inkscape:window-height="746"
     inkscape:window-x="0"
     inkscape:window-y="0"
     inkscape:window-maximized="1" />
  <metadata
     id="metadata7">
    <rdf:RDF>
      <cc:Work
         rdf:about="">
        <dc:format>image/svg+xml</dc:format>
        <dc:type
           rdf:resource="http://purl.org/dc/dcmitype/StillImage" />
        <dc:title></dc:title>
      </cc:Work>
    </rdf:RDF>
  </metadata>
  <g
     inkscape:label="Layer 1"
     inkscape:groupmode="layer"
     id="layer1">
    <rect
       style="fill:#ff0000;fill-opacity:1;stroke:none"
       id="rect2985"
       width="50"
       height="50"
       x="-909.28571"
       y="278.43362"
       inkscape:export-filename="8.png"
       inkscape:export-xdpi="90"
       inkscape:export-ydpi="90" />
    <path
       style="fill:#000000;fill-opacity:1;stroke:none"
       d="m -882.75154,283.69759 c -2.23121,0.003 -4.13016,1.56276 -5.20583,3.41797 -2.01935,1.62455 -3.62836,3.68107 -5.56658,5.39696 -2.08385,2.17015 -3.83025,4.64214 -5.59189,7.07375 -1.50257,2.1803 -0.98982,5.43127 1.22843,6.92753 2.13131,1.68815 5.49003,1.2026 7.06991,-1.01053 0.63265,-0.63329 2.08111,-3.3513 1.71893,-1.07295 0.009,4.6553 -0.0252,9.31307 0.0663,13.96688 0.0868,2.71738 2.61209,4.98388 5.32136,4.76061 2.6756,-0.0154 4.90493,-2.43615 4.86426,-5.08364 0.048,-3.52187 0.0244,-7.04438 0.0495,-10.56648 1.24477,1.7346 3.07699,3.44731 5.38116,3.21324 3.17053,-0.14544 5.71138,-3.66654 4.51668,-6.69445 -0.8028,-2.12773 -2.75979,-3.52432 -3.74535,-5.55947 -1.88768,-3.01052 -2.95516,-6.4347 -4.55789,-9.58037 -0.11234,-0.7134 -0.82908,-2.86613 -1.9101,-3.72721 -1.12787,-0.67098 -2.25096,-1.52578 -3.63884,-1.46184 z"
       id="path2987"
       inkscape:connector-curvature="0" />
    <rect
       y="-452.71933"
       x="860"
       height="50"
       width="50"
       id="rect3024"
       style="fill:#ff0000;fill-opacity:1;stroke:none"
       inkscape:export-filename="2.png"
       inkscape:export-xdpi="90"
       inkscape:export-ydpi="90"
       transform="scale(-1,-1)" />
    <path
       inkscape:connector-curvature="0"
       id="path3026"
       d="m -886.53412,447.45535 c 2.23121,-0.003 4.13016,-1.56276 5.20583,-3.41797 2.01935,-1.62455 3.62836,-3.68107 5.56658,-5.39696 2.08385,-2.17015 3.83025,-4.64214 5.59189,-7.07375 1.50257,-2.1803 0.98982,-5.43127 -1.22843,-6.92753 -2.13131,-1.68815 -5.49003,-1.2026 -7.06991,1.01053 -0.63265,0.63329 -2.08111,3.3513 -1.71893,1.07295 -0.009,-4.6553 0.0252,-9.31307 -0.0663,-13.96688 -0.0868,-2.71738 -2.61209,-4.98388 -5.32136,-4.76061 -2.6756,0.0154 -4.90493,2.43615 -4.86426,5.08364 -0.048,3.52187 -0.0244,7.04438 -0.0495,10.56648 -1.24477,-1.7346 -3.07699,-3.44731 -5.38116,-3.21324 -3.17053,0.14544 -5.71138,3.66654 -4.51668,6.69445 0.8028,2.12773 2.75979,3.52432 3.74535,5.55947 1.88768,3.01052 2.95516,6.4347 4.55789,9.58037 0.11234,0.7134 0.82908,2.86613 1.9101,3.72721 1.12787,0.67098 2.25096,1.52578 3.63884,1.46184 z"
       style="fill:#000000;fill-opacity:1;stroke:none"
       inkscape:export-filename="2.png"
       inkscape:export-xdpi="90"
       inkscape:export-ydpi="90" />
    <rect
       style="fill:#ff0000;fill-opacity:1;stroke:none"
       id="rect3028"
       width="50"
       height="50"
       x="-378.43362"
       y="-970.35718"
       inkscape:export-filename="4.png"
       inkscape:export-xdpi="90"
       inkscape:export-ydpi="90"
       transform="matrix(0,-1,1,0,0,0)" />
    <path
       style="fill:#000000;fill-opacity:1;stroke:none"
       d="m -965.09318,351.89944 c 0.003,2.23121 1.56276,4.13016 3.41797,5.20583 1.62455,2.01935 3.68107,3.62836 5.39696,5.56658 2.17015,2.08385 4.64214,3.83025 7.07375,5.59189 2.1803,1.50257 5.43127,0.98982 6.92753,-1.22843 1.68815,-2.13131 1.2026,-5.49003 -1.01053,-7.06991 -0.63329,-0.63265 -3.3513,-2.08111 -1.07295,-1.71893 4.6553,-0.009 9.31307,0.0252 13.96688,-0.0663 2.71738,-0.0868 4.98388,-2.61209 4.76061,-5.32136 -0.0154,-2.6756 -2.43615,-4.90493 -5.08364,-4.86426 -3.52187,-0.048 -7.04438,-0.0244 -10.56648,-0.0495 1.7346,-1.24477 3.44731,-3.07699 3.21324,-5.38116 -0.14544,-3.17053 -3.66654,-5.71138 -6.69445,-4.51668 -2.12773,0.8028 -3.52432,2.75979 -5.55947,3.74535 -3.01052,1.88768 -6.4347,2.95516 -9.58037,4.55789 -0.7134,0.11234 -2.86613,0.82908 -3.72721,1.9101 -0.67098,1.12787 -1.52578,2.25096 -1.46184,3.63884 z"
       id="path3030"
       inkscape:connector-curvature="0"
       inkscape:export-filename="4.png"
       inkscape:export-xdpi="90"
       inkscape:export-ydpi="90" />
    <rect
       y="802.85712"
       x="331.29074"
       height="50"
       width="50"
       id="rect3032"
       style="fill:#ff0000;fill-opacity:1;stroke:none"
       inkscape:export-filename="6.png"
       inkscape:export-xdpi="90"
       inkscape:export-ydpi="90"
       transform="matrix(0,1,-1,0,0,0)" />
    <path
       inkscape:connector-curvature="0"
       id="path3034"
       d="m -808.12111,357.82491 c -0.003,-2.23121 -1.56276,-4.13016 -3.41797,-5.20583 -1.62455,-2.01935 -3.68107,-3.62836 -5.39696,-5.56658 -2.17015,-2.08385 -4.64214,-3.83025 -7.07375,-5.59189 -2.1803,-1.50257 -5.43127,-0.98982 -6.92753,1.22843 -1.68815,2.13131 -1.2026,5.49003 1.01053,7.06991 0.63329,0.63265 3.3513,2.08111 1.07295,1.71893 -4.6553,0.009 -9.31307,-0.0252 -13.96688,0.0663 -2.71738,0.0868 -4.98388,2.61209 -4.76061,5.32136 0.0154,2.6756 2.43615,4.90493 5.08364,4.86426 3.52187,0.048 7.04438,0.0244 10.56648,0.0495 -1.7346,1.24477 -3.44731,3.07699 -3.21324,5.38116 0.14544,3.17053 3.66654,5.71138 6.69445,4.51668 2.12773,-0.8028 3.52432,-2.75979 5.55947,-3.74535 3.01052,-1.88768 6.4347,-2.95516 9.58037,-4.55789 0.7134,-0.11234 2.86613,-0.82908 3.72721,-1.9101 0.67098,-1.12787 1.52578,-2.25096 1.46184,-3.63884 z"
       style="fill:#000000;fill-opacity:1;stroke:none"
       inkscape:export-filename="6.png"
       inkscape:export-xdpi="90"
       inkscape:export-ydpi="90" />
    <rect
       transform="matrix(0,1,-1,0,0,0)"
       inkscape:export-ydpi="90"
       inkscape:export-xdpi="90"
       inkscape:export-filename="9.png"
       style="fill:#ff0000;fill-opacity:1;stroke:none"
       id="rect3036"
       width="50"
       height="50"
       x="277.36218"
       y="802.85712" />
    <path
       inkscape:export-ydpi="90"
       inkscape:export-xdpi="90"
       inkscape:export-filename="6.png"
       style="fill:#000000;fill-opacity:1;stroke:none"
       d="m -812.81684,289.49152 c -1.57982,-1.57558 -4.0255,-1.81543 -6.09795,-1.26421 -2.57662,-0.27916 -5.16854,0.0373 -7.75239,-0.11994 -3.00803,0.061 -5.99088,0.5741 -8.95596,1.04784 -2.60418,0.47922 -4.5404,3.14058 -4.02987,5.76713 0.31336,2.70077 3.03167,4.7324 5.71373,4.28463 0.89516,-4.5e-4 3.8413,-0.89816 1.97416,0.45678 -3.28543,3.29815 -6.60315,6.56751 -9.82919,9.92295 -1.86011,1.98286 -1.67711,5.37116 0.39651,7.12903 1.90282,1.88105 5.19092,1.74569 7.03422,-0.15512 2.52428,-2.4564 4.99839,-4.96388 7.50663,-7.43663 -0.34636,2.10673 -0.26185,4.61338 1.53296,6.07716 2.34474,2.13906 6.63119,1.44592 7.92746,-1.53992 0.93687,-2.0722 0.54061,-4.44353 1.28278,-6.5795 0.79397,-3.46355 2.4604,-6.63963 3.55143,-9.99726 0.42501,-0.58389 1.44041,-2.61291 1.28489,-3.98618 -0.32307,-1.27198 -0.51278,-2.67056 -1.53937,-3.60672 z"
       id="path3038"
       inkscape:connector-curvature="0" />
    <rect
       y="802.85712"
       x="411.29077"
       height="50"
       width="50"
       id="rect3040"
       style="fill:#ff0000;fill-opacity:1;stroke:none"
       inkscape:export-filename="3.png"
       inkscape:export-xdpi="90"
       inkscape:export-ydpi="90"
       transform="matrix(0,1,-1,0,0,0)" />
    <path
       inkscape:connector-curvature="0"
       id="path3042"
       d="m -814.98647,451.33104 c 1.57558,-1.57983 1.81542,-4.02551 1.2642,-6.09795 0.27917,-2.57663 -0.0373,-5.16855 0.11994,-7.75239 -0.061,-3.00804 -0.57409,-5.99089 -1.04783,-8.95596 -0.47923,-2.60419 -3.14058,-4.5404 -5.76713,-4.02988 -2.70077,0.31337 -4.73241,3.03167 -4.28463,5.71374 4.5e-4,0.89515 0.89816,3.84129 -0.45678,1.97416 -3.29816,-3.28543 -6.56752,-6.60316 -9.92296,-9.8292 -1.98285,-1.8601 -5.37116,-1.67711 -7.12903,0.39651 -1.88104,1.90283 -1.74569,5.19093 0.15513,7.03423 2.4564,2.52428 4.96387,4.99838 7.43663,7.50663 -2.10674,-0.34636 -4.61338,-0.26186 -6.07716,1.53295 -2.13906,2.34475 -1.44592,6.63119 1.53991,7.92747 2.0722,0.93686 4.44354,0.5406 6.57951,1.28277 3.46355,0.79397 6.63963,2.46041 9.99725,3.55143 0.58389,0.42502 2.61291,1.44042 3.98618,1.28489 1.27198,-0.32307 2.67056,-0.51278 3.60673,-1.53937 z"
       style="fill:#000000;fill-opacity:1;stroke:none"
       inkscape:export-filename="6.png"
       inkscape:export-xdpi="90"
       inkscape:export-ydpi="90" />
    <rect
       transform="matrix(0,1,-1,0,0,0)"
       inkscape:export-ydpi="90"
       inkscape:export-xdpi="90"
       inkscape:export-filename="1.png"
       style="fill:#ff0000;fill-opacity:1;stroke:none"
       id="rect3044"
       width="50"
       height="50"
       x="411.29077"
       y="923.57141" />
    <path
       inkscape:export-ydpi="90"
       inkscape:export-xdpi="90"
       inkscape:export-filename="6.png"
       style="fill:#000000;fill-opacity:1;stroke:none"
       d="m -963.61171,449.1614 c 1.57982,1.57558 4.0255,1.81543 6.09795,1.26421 2.57662,0.27917 5.16854,-0.0373 7.75239,0.11994 3.00803,-0.061 5.99088,-0.57409 8.95596,-1.04783 2.60418,-0.47923 4.5404,-3.14058 4.02987,-5.76714 -0.31336,-2.70077 -3.03167,-4.7324 -5.71373,-4.28463 -0.89516,4.5e-4 -3.8413,0.89816 -1.97416,-0.45677 3.28543,-3.29816 6.60315,-6.56752 9.82919,-9.92296 1.86011,-1.98286 1.67711,-5.37116 -0.39651,-7.12903 -1.90282,-1.88105 -5.19092,-1.74569 -7.03422,0.15512 -2.52428,2.4564 -4.99839,4.96388 -7.50663,7.43663 0.34636,-2.10673 0.26185,-4.61337 -1.53296,-6.07716 -2.34474,-2.13906 -6.63119,-1.44592 -7.92746,1.53992 -0.93687,2.0722 -0.54061,4.44354 -1.28278,6.5795 -0.79397,3.46355 -2.4604,6.63963 -3.55143,9.99726 -0.42501,0.58389 -1.44041,2.61291 -1.28489,3.98618 0.32307,1.27198 0.51278,2.67056 1.53937,3.60673 z"
       id="path3046"
       inkscape:connector-curvature="0" />
    <rect
       y="923.57141"
       x="267.36218"
       height="50"
       width="50"
       id="rect3048"
       style="fill:#ff0000;fill-opacity:1;stroke:none"
       inkscape:export-filename="7.png"
       inkscape:export-xdpi="90"
       inkscape:export-ydpi="90"
       transform="matrix(0,1,-1,0,0,0)" />
    <path
       inkscape:connector-curvature="0"
       id="path3050"
       d="m -961.44208,277.32188 c -1.57558,1.57983 -1.81542,4.02551 -1.2642,6.09795 -0.27917,2.57663 0.0373,5.16855 -0.11994,7.7524 0.061,3.00803 0.57409,5.99088 1.04783,8.95596 0.47923,2.60418 3.14058,4.54039 5.76713,4.02987 2.70077,-0.31336 4.73241,-3.03167 4.28463,-5.71374 -4.5e-4,-0.89515 -0.89816,-3.84129 0.45678,-1.97415 3.29816,3.28543 6.56752,6.60315 9.92296,9.82919 1.98285,1.8601 5.37116,1.67711 7.12903,-0.39651 1.88104,-1.90282 1.74569,-5.19093 -0.15513,-7.03423 -2.4564,-2.52428 -4.96387,-4.99838 -7.43663,-7.50663 2.10674,0.34636 4.61338,0.26186 6.07716,-1.53295 2.13906,-2.34474 1.44592,-6.63119 -1.53991,-7.92747 -2.0722,-0.93686 -4.44354,-0.5406 -6.57951,-1.28277 -3.46355,-0.79397 -6.63963,-2.46041 -9.99725,-3.55143 -0.58389,-0.42502 -2.61291,-1.44041 -3.98618,-1.28489 -1.27198,0.32307 -2.67056,0.51278 -3.60673,1.53937 z"
       style="fill:#000000;fill-opacity:1;stroke:none"
       inkscape:export-filename="6.png"
       inkscape:export-xdpi="90"
       inkscape:export-ydpi="90" />
    <rect
       transform="scale(-1,-1)"
       inkscape:export-ydpi="90"
       inkscape:export-xdpi="90"
       inkscape:export-filename="5.png"
       style="fill:#ff0000;fill-opacity:1;stroke:none"
       id="rect3052"
       width="50"
       height="50"
       x="860"
       y="-393.07648" />
    <path
       style="fill:#000000;fill-opacity:1;stroke:none"
       d="m -890.9375,361.78125 c -1.1297,0.0576 -2.35666,0.14429 -3.25078,0.92626 -0.48993,0.35569 -0.83197,0.90598 -1.09297,1.44874 -0.31275,0.80839 -0.22507,1.73068 0.15625,2.5 -0.39565,1.25483 0.36244,2.61882 1.5035,3.17884 0.90571,0.52938 1.82268,1.05258 2.75105,1.53245 1.23591,1.03026 2.5636,1.9867 4.03686,2.64106 1.39416,0.57299 3.13913,0.18405 4.07477,-1.02477 1.17933,-1.43248 1.78168,-3.38889 1.41026,-5.22509 -0.13165,-0.51185 0.11471,-1.07927 -0.0426,-1.62061 -0.23678,-1.37214 -1.3815,-2.37687 -2.5631,-2.98795 -1.77466,-0.77885 -3.71343,-1.10636 -5.62929,-1.31286 -0.45015,-0.0387 -0.90213,-0.0596 -1.35391,-0.0561 z"
       id="path3056"
       inkscape:connector-curvature="0"
       inkscape:export-filename="5.png"
       inkscape:export-xdpi="90"
       inkscape:export-ydpi="90" />
    <rect
       transform="scale(-1,-1)"
       inkscape:export-ydpi="90"
       inkscape:export-xdpi="90"
       inkscape:export-filename="2.png"
       style="fill:#ff0000;fill-opacity:1;stroke:none"
       id="rect3060"
       width="50"
       height="50"
       x="860"
       y="-568.8869" />
    <rect
       transform="matrix(0,1,-1,0,0,0)"
       inkscape:export-ydpi="90"
       inkscape:export-xdpi="90"
       inkscape:export-filename="3.png"
       style="fill:#ff0000;fill-opacity:1;stroke:none"
       id="rect3064"
       width="50"
       height="50"
       x="527.45831"
       y="802.85712" />
    <rect
       y="923.57141"
       x="527.45831"
       height="50"
       width="50"
       id="rect3068"
       style="fill:#ff0000;fill-opacity:1;stroke:none"
       inkscape:export-filename="1.png"
       inkscape:export-xdpi="90"
       inkscape:export-ydpi="90"
       transform="matrix(0,1,-1,0,0,0)" />
    <rect
       y="-642.12299"
       x="860"
       height="50"
       width="50"
       id="rect3072"
       style="fill:#ff0000;fill-opacity:1;stroke:none"
       inkscape:export-filename="2.png"
       inkscape:export-xdpi="90"
       inkscape:export-ydpi="90"
       transform="scale(-1,-1)" />
    <rect
       y="802.85712"
       x="600.6944"
       height="50"
       width="50"
       id="rect3076"
       style="fill:#ff0000;fill-opacity:1;stroke:none"
       inkscape:export-filename="3.png"
       inkscape:export-xdpi="90"
       inkscape:export-ydpi="90"
       transform="matrix(0,1,-1,0,0,0)" />
    <rect
       transform="matrix(0,1,-1,0,0,0)"
       inkscape:export-ydpi="90"
       inkscape:export-xdpi="90"
       inkscape:export-filename="1.png"
       style="fill:#ff0000;fill-opacity:1;stroke:none"
       id="rect3080"
       width="50"
       height="50"
       x="600.6944"
       y="923.57141" />
    <text
       xml:space="preserve"
       style="font-size:40px;font-style:normal;font-variant:normal;font-weight:normal;font-stretch:normal;line-height:125%;letter-spacing:0px;word-spacing:0px;fill:#000000;fill-opacity:1;stroke:none;font-family:Ubuntu;-inkscape-font-specification:Ubuntu"
       x="-958.21429"
       y="559.86218"
       id="text3084"
       sodipodi:linespacing="125%"><tspan
         sodipodi:role="line"
         id="tspan3086"
         x="-958.21429"
         y="559.86218">a</tspan></text>
    <text
       sodipodi:linespacing="125%"
       id="text3088"
       y="559.86218"
       x="-958.21429"
       style="font-size:40px;font-style:normal;font-variant:normal;font-weight:normal;font-stretch:normal;line-height:125%;letter-spacing:0px;word-spacing:0px;fill:#000000;fill-opacity:1;stroke:none;font-family:Ubuntu;-inkscape-font-specification:Ubuntu"
       xml:space="preserve"><tspan
         y="559.86218"
         x="-958.21429"
         id="tspan3090"
         sodipodi:role="line">a</tspan></text>
    <text
       xml:space="preserve"
       style="font-size:40px;font-style:normal;font-variant:normal;font-weight:normal;font-stretch:normal;line-height:125%;letter-spacing:0px;word-spacing:0px;fill:#000000;fill-opacity:1;stroke:none;font-family:Ubuntu;-inkscape-font-specification:Ubuntu"
       x="-895.35718"
       y="553.79077"
       id="text3092"
       sodipodi:linespacing="125%"><tspan
         sodipodi:role="line"
         id="tspan3094"
         x="-895.35718"
         y="553.79077">b</tspan></text>
    <text
       sodipodi:linespacing="125%"
       id="text3096"
       y="561.64789"
       x="-840.71429"
       style="font-size:40px;font-style:normal;font-variant:normal;font-weight:normal;font-stretch:normal;line-height:125%;letter-spacing:0px;word-spacing:0px;fill:#000000;fill-opacity:1;stroke:none;font-family:Ubuntu;-inkscape-font-specification:Ubuntu"
       xml:space="preserve"><tspan
         y="561.64789"
         x="-840.71429"
         id="tspan3098"
         sodipodi:role="line">c</tspan></text>
    <text
       xml:space="preserve"
       style="font-size:40px;font-style:normal;font-variant:normal;font-weight:normal;font-stretch:normal;line-height:125%;letter-spacing:0px;word-spacing:0px;fill:#000000;fill-opacity:1;stroke:none;font-family:Ubuntu;-inkscape-font-specification:Ubuntu"
       x="-837.85718"
       y="642.36218"
       id="text3100"
       sodipodi:linespacing="125%"><tspan
         sodipodi:role="line"
         id="tspan3102"
         x="-837.85718"
         y="642.36218">f</tspan></text>
    <text
       sodipodi:linespacing="125%"
       id="text3104"
       y="628.43359"
       x="-898.92859"
       style="font-size:40px;font-style:normal;font-variant:normal;font-weight:normal;font-stretch:normal;line-height:125%;letter-spacing:0px;word-spacing:0px;fill:#000000;fill-opacity:1;stroke:none;font-family:Ubuntu;-inkscape-font-specification:Ubuntu"
       xml:space="preserve"><tspan
         y="628.43359"
         x="-898.92859"
         id="tspan3106"
         sodipodi:role="line">e</tspan></text>
    <text
       xml:space="preserve"
       style="font-size:40px;font-style:normal;font-variant:normal;font-weight:normal;font-stretch:normal;line-height:125%;letter-spacing:0px;word-spacing:0px;fill:#000000;fill-opacity:1;stroke:none;font-family:Ubuntu;-inkscape-font-specification:Ubuntu"
       x="-958.21429"
       y="637.36218"
       id="text3108"
       sodipodi:linespacing="125%"><tspan
         sodipodi:role="line"
         id="tspan3110"
         x="-958.21429"
         y="637.36218">d</tspan></text>
  </g>
</svg>
